<svg width="447" height="478" viewBox="0 0 447 478" fill="none" xmlns="http://www.w3.org/2000/svg">
<rect width="447" height="478" rx="72" fill="white"/>
<path fill-rule="evenodd" clip-rule="evenodd" d="M214.788 194.986L123.002 238.5H123L260.044 421L232.215 282.015L323.998 238.5H324L186.958 56L214.788 194.986Z" fill="url(#paint0_linear_1_5)"/>
<path d="M169.819 190.208C177.23 190.208 183.238 184.282 183.238 176.971C183.238 169.661 177.23 163.734 169.819 163.734C162.408 163.734 156.4 169.661 156.4 176.971C156.4 184.282 162.408 190.208 169.819 190.208Z" fill="url(#paint1_linear_1_5)"/>
<path d="M275.266 309.352C282.677 309.352 288.685 303.425 288.685 296.115C288.685 288.804 282.677 282.878 275.266 282.878C267.855 282.878 261.847 288.804 261.847 296.115C261.847 303.425 267.855 309.352 275.266 309.352Z" fill="url(#paint2_linear_1_5)"/>
<defs>
<linearGradient id="paint0_linear_1_5" x1="172.636" y1="51.2422" x2="271.806" y2="426.436" gradientUnits="userSpaceOnUse">
<stop stop-color="#4FC5F0"/>
<stop offset="1" stop-color="#29255F"/>
</linearGradient>
<linearGradient id="paint1_linear_1_5" x1="173.562" y1="163.191" x2="166.264" y2="190.801" gradientUnits="userSpaceOnUse">
<stop stop-color="#59CAEF"/>
<stop offset="1" stop-color="#2F3D75"/>
</linearGradient>
<linearGradient id="paint2_linear_1_5" x1="173.562" y1="163.191" x2="166.264" y2="190.801" gradientUnits="userSpaceOnUse">
<stop stop-color="#59CAEF"/>
<stop offset="1" stop-color="#2F3D75"/>
</linearGradient>
</defs>
</svg>
