<?xml version="1.0" encoding="UTF-8"?>
<!DOCTYPE svg PUBLIC "-//W3C//DTD SVG 1.1//EN" "http://www.w3.org/Graphics/SVG/1.1/DTD/svg11.dtd">
<!-- Creator: CorelDRAW -->
<svg xmlns="http://www.w3.org/2000/svg" xml:space="preserve" width="1.00301in" height="1.33033in" style="shape-rendering:geometricPrecision; text-rendering:geometricPrecision; image-rendering:optimizeQuality; fill-rule:evenodd; clip-rule:evenodd"
viewBox="0 0 0.210674 0.279426"
 xmlns:xlink="http://www.w3.org/1999/xlink">
 <defs>
  <style type="text/css">
   <![CDATA[
    .fil0 {fill:url(#id0)}
   ]]>
  </style>
  <linearGradient id="id0" gradientUnits="userSpaceOnUse" x1="0.107357" y1="0.279426" x2="0.107357" y2="0">
   <stop offset="0" style="stop-color:#2E3A72"/>
   <stop offset="1" style="stop-color:#4BB2DF"/>
  </linearGradient>
 </defs>
 <g id="Layer_x0020_1">
  <metadata id="CorelCorpID_0Corel-Layer"/>
  <path class="fil0" d="M0.128663 0.103271c-0.00829503,-0.021335 -0.0184788,-0.0418572 -0.0287055,-0.0623124 0.00186723,0.00116681 0.00373363,0.00233362 0.00560086,0.00350043 0.0187418,0.0187418 0.028049,0.0309093 0.0434094,0.0525106 0.00897973,0.0135196 0.0165437,0.0244104 0.0231047,0.0336068 0.00536766,0.00630128 0.0107353,0.0126026 0.016103,0.0189038 -0.0071646,-0.0560615 -0.0504301,-0.113253 -0.100267,-0.14948 0.0593875,0.0147559 0.0928984,0.0536568 0.11497,0.109572 0.0115292,0.0474671 0.0118368,0.0878119 -0.00980171,0.134427 -0.00135039,-0.0216154 -0.00417522,-0.0443587 -0.0126026,-0.0644128 -0.00282813,0.0471157 -0.00427197,0.0719024 -0.0488068,0.0998397 0.00256847,-0.00255855 0.00484173,-0.00592089 0.00679827,-0.00952138 0.00396765,-0.00630128 0.00793448,-0.0126026 0.0119021,-0.0189038 0.00326724,-0.00746809 0.00603996,-0.0138066 0.0093072,-0.0212747 0.00343841,-0.0142953 0.00712656,-0.0371403 -0.00370634,-0.0620419 -0.00210043,-0.00466807 -0.00420085,-0.00933532 -0.00630128,-0.0140034 -0.00326724,0.00490127 -0.00653447,0.00980171 -0.00980171,0.014703 -0.00694546,0.0111124 -0.0110165,0.0180281 -0.016103,0.0301064 -0.00367161,0.011578 -0.00810814,0.0232105 -0.0102755,0.0351598 -0.00473588,-0.0181877 -0.00956355,-0.0276892 -0.0163304,-0.0456619 -0.00835953,-0.0208992 -0.0133311,-0.0326815 -0.0252051,-0.0518102 -0.00186723,0.00513447 -0.00373363,0.0102681 -0.00560086,0.0154026 -0.0143333,0.0410691 -0.000922037,0.0654605 0.0259055,0.103621 0.00233362,0.00303404 0.00466725,0.00606808 0.00700087,0.00910212 -0.00326724,-0.00233362 -0.00653447,-0.00466807 -0.00980171,-0.00700169 -4.87894e-005,-0.000359719 -9.84058e-005,-0.000720264 -0.000147195,-0.00107998 -0.00897973,-0.0044233 -0.0159533,-0.0118476 -0.0229575,-0.0192239 -0.00703725,-0.00572407 -0.0116342,-0.0156027 -0.0168034,-0.0245055 -0.011186,-0.0256723 -0.00723737,-0.0411377 -0.00210043,-0.0777158 -0.000258005,-0.0216898 0.000514356,-0.0186252 -0.013303,-0.0364068 -0.000933614,0.00326724 -0.0018664,0.00653447 -0.00280002,0.00980171 -0.00233362,0.0130689 -0.00466807,0.0261387 -0.00700169,0.0392077 -0.000621031,0.00348224 -8.93094e-005,0.000990673 -0.000147195,0.00172003 -0.00312087,0.0392126 0.000496991,0.0563923 0.0116995,0.0710953 0.00490127,0.00770129 0.0101523,0.0135362 0.0157532,0.0203038 0.0140026,0.0126026 0.0287055,0.0224043 0.0455089,0.0322068 -0.00583406,-0.00186723 -0.0116689,-0.00373446 -0.017503,-0.00560169 -0.036344,-0.0138951 -0.05712,-0.0270955 -0.0728153,-0.0637124 -0.00640051,-0.0277422 -0.00342187,-0.0481394 0.000700418,-0.0763157 0.00416364,-0.0322639 0.006747,-0.0519905 -0.00280084,-0.0847174 -0.00157945,-0.00362696 -0.00315808,-0.00725474 -0.00473754,-0.0108817 0.0223943,0.0170085 0.0426089,0.0374885 0.060049,0.0563915 0.000872421,-0.0209406 -0.0303942,-0.0697912 -0.0420085,-0.084017 0.0393383,0.0171383 0.0723679,0.0751663 0.110622,0.0994196zm-0.046909 -0.00210043c-0.000700418,0.00303404 -0.00101962,0.00690164 -0.00156209,0.0100448 0.00186723,0.00326724 0.00319529,0.00559176 0.00506252,0.008859 0.0123106,0.0155688 0.0223389,0.0275412 0.0322068,0.0448094 0.00163321,-0.00350043 0.00326724,-0.00700169 0.00490044,-0.0105021 0.00256765,-0.00560086 0.00456057,-0.0117723 0.00712822,-0.0173732 -0.0103293,-0.0103293 -0.0211316,-0.0168795 -0.0330329,-0.0253358 -0.00490127,-0.00350043 -0.00980171,-0.00700169 -0.014703,-0.0105021z"/>
 </g>
</svg>
