<svg width="556" height="225" viewBox="0 0 556 225" fill="none" xmlns="http://www.w3.org/2000/svg">
<path d="M5.24844 197.651C-0.871127 188.745 -1.1054 178.397 4.41565 170.758C9.96962 163.073 19.1138 159.987 28.7969 162.713C34.3385 164.273 38.6704 167.733 41.2764 172.772C42.946 176.001 45.0963 176.766 48.4235 176.759C91.0888 176.658 133.754 176.658 176.42 176.656C178.126 176.656 179.792 176.649 181.084 175.355C194.826 161.579 208.558 147.792 222.448 133.854C219.481 129.015 215.051 125.923 211.474 122.075C207.619 117.929 203.267 114.24 199.481 110.038C196.925 107.202 195.25 107.38 192.656 110.014C178.51 124.382 164.149 138.54 150.008 152.912C147.23 155.736 144.369 157.096 140.356 157.004C123.033 156.609 105.701 157.299 88.3723 156.566C84.8028 156.415 83.5408 155.206 83.7804 151.858C83.8753 150.533 83.8646 149.184 83.7365 147.862C83.3491 143.861 85.2995 142.646 89.0672 142.674C103.4 142.781 117.74 142.432 132.063 142.809C137.919 142.964 141.927 141.148 145.938 136.865C155.491 126.661 165.886 117.249 175.481 107.083C180.948 101.291 186.673 95.7953 192.267 90.1518C195.313 87.0793 197.215 87.4656 199.969 90.2894C209.62 100.189 219.52 109.848 229.148 119.769C231.997 122.704 233.937 122.779 236.862 119.784C249.663 106.677 262.763 93.8592 275.539 80.7277C278.616 77.5655 280.52 77.0467 283.847 80.5142C294.795 91.9275 306.029 103.068 317.258 114.209C322.969 119.875 322.973 119.677 328.495 114.08C337.847 104.602 347.394 95.3157 356.734 85.8253C359.741 82.7706 361.581 84.6142 363.731 86.7703C379.481 102.567 395.347 118.249 410.973 134.167C414.282 137.538 417.675 138.976 422.399 138.895C437.061 138.641 451.731 138.773 466.397 138.818C472.079 138.836 472.128 139.214 472.366 146.421C472.511 150.814 471.656 153.2 466.443 153.129C449.113 152.892 431.777 153.017 414.444 153.106C411.401 153.121 409.091 152.189 406.915 150.004C392.342 135.367 377.667 120.83 363.012 106.275C362.088 105.357 361.047 104.557 358.732 102.552C352.927 108.847 347.326 115.183 341.441 121.241C333.066 129.861 332.911 129.839 341.281 138.257C353.027 150.07 364.956 161.701 376.627 173.586C378.976 175.977 381.36 176.721 384.558 176.715C425.224 176.635 465.891 176.612 506.557 176.734C510.318 176.746 512.511 175.691 514.537 172.361C520.73 162.178 532.99 158.693 542.75 163.866C553.854 169.75 558.197 181.256 553.292 192.651C550.248 199.721 544.598 204.089 537.017 205.2C527.897 206.536 519.965 203.876 515.061 195.657C512.825 191.912 510.169 190.94 506.144 190.951C464.312 191.059 422.479 190.99 380.646 191.107C376.385 191.119 373.227 190.067 370.082 186.898C341.451 158.043 312.572 129.435 283.934 100.589C280.781 97.4137 279.126 97.5041 276.041 100.612C247.517 129.348 218.798 157.89 190.239 186.591C187.553 189.291 184.814 190.398 181.02 190.389C137.187 190.281 93.3536 190.365 49.5208 190.244C45.4448 190.233 43.0633 191.213 40.8476 195.054C33.3899 207.982 16.2288 209.178 5.24844 197.651ZM532.643 172.141C531.37 172.505 530.056 172.765 528.833 173.253C524.085 175.149 521.816 179.153 521.755 183.816C521.692 188.63 524.5 192.501 529.096 194.187C533.598 195.84 538.071 195.064 541.553 191.48C544.554 188.39 545.493 184.625 544.194 180.411C542.559 175.107 538.626 172.802 532.643 172.141ZM30.0979 191.639C34.3205 186.236 34.7973 182.625 31.7044 177.602C29.0834 173.345 25.064 171.604 20.2433 172.459C15.4296 173.312 12.1261 176.243 11.253 181.213C10.3839 186.16 11.53 190.543 16.171 193.238C20.8047 195.929 25.3337 195.522 30.0979 191.639Z" fill="#386C3B"/>
<path d="M150 224.875C120.67 224.876 91.834 225.219 63.0115 224.749C45.6914 224.466 28.3783 224.92 11.0634 224.558C7.83261 224.49 6.70767 223.389 6.62778 220.169C6.37575 210.01 6.27173 210.032 16.5051 210.031C91.997 210.025 167.489 210.011 242.981 209.996C249.884 209.995 249.885 209.983 249.885 203.04C249.886 199.707 249.779 196.37 249.908 193.042C250.115 187.676 250.104 183.016 244.701 179.17C239.717 175.622 240.642 167.248 245.253 163.208C250.296 158.791 257.375 159.487 261.576 164.814C265.786 170.15 264.918 177.43 259.106 180.914C256.031 182.758 255.092 184.875 255.187 188.178C255.35 193.839 255.336 199.511 255.194 205.174C255.112 208.499 256.239 210.124 259.786 209.997C264.446 209.831 269.117 209.905 273.783 209.971C276.497 210.009 277.695 208.875 277.681 206.093C277.617 193.928 277.561 181.761 277.714 169.598C277.755 166.346 275.354 165.523 273.458 164.031C268.464 160.103 267.292 153.914 270.57 148.949C273.922 143.872 279.95 142.39 285.499 145.279C292.458 148.902 293.492 158.94 286.977 163.645C283.785 165.951 282.967 168.424 283.016 172.011C283.161 182.841 283.191 193.677 282.993 204.505C282.919 208.595 284.31 210.021 288.469 210.055C303.956 210.178 303.956 210.303 304.001 195.108C304.009 192.609 303.901 190.103 304.037 187.611C304.186 184.878 303.319 182.979 300.949 181.326C296.123 177.96 294.724 173.325 296.499 168.292C298.343 163.061 302.088 160.476 307.488 160.706C312.46 160.917 316.101 163.856 317.619 168.883C319.155 173.964 317.401 178.525 312.484 181.71C310.882 182.749 309.394 183.541 309.663 185.872C310.374 192.031 309.78 198.197 309.348 204.336C309.038 208.729 310.667 210.117 315.044 210.084C338.373 209.908 361.705 209.987 385.036 209.988C438.697 209.988 492.357 209.985 546.018 210.032C548.203 210.034 551.442 208.989 552.067 211.948C552.872 215.766 553.27 219.937 551.584 223.679C550.949 225.09 548.836 224.412 547.378 224.416C486.723 224.586 426.068 224.837 365.412 224.86C322.589 224.876 279.765 224.486 236.942 224.455C208.128 224.435 179.314 224.725 150 224.875ZM303.945 166.48C300.607 168.736 299.091 171.53 301.684 175.242C303.559 177.926 306.051 179.507 309.303 177.626C311.977 176.079 314.373 173.882 313.143 170.444C311.758 166.569 308.924 164.607 303.945 166.48ZM249.286 166.666C246.766 168.691 246.112 171.21 247.312 174.204C248.113 176.204 249.507 177.446 251.715 177.744C254.915 178.177 257.181 176.844 258.743 174.147C259.938 172.084 260.045 170.057 258.313 168.198C255.947 165.658 253.262 164.453 249.286 166.666ZM281.855 160.702C285.147 159.441 287.21 157.278 286.214 153.562C285.305 150.171 282.889 148.059 279.291 148.577C275.729 149.09 273.829 151.65 274.058 155.254C274.328 159.518 276.879 161.323 281.855 160.702Z" fill="#354EA9"/>
<path d="M250 28.4022C242.001 28.384 234.502 28.3574 227.003 28.3507C223.695 28.3477 220.804 27.5326 220.622 23.6365C220.428 19.4965 223.402 18.3529 226.861 18.0586C228.186 17.9458 229.525 17.9866 230.858 17.9863C263.52 17.9803 296.182 17.9673 328.844 18.0003C330.992 18.0025 333.2 18.1145 335.273 18.6175C337.782 19.2265 339.303 21.0747 339.08 23.7566C338.857 26.4372 337.047 27.8581 334.48 28.2487C333.337 28.4227 332.154 28.3607 330.989 28.3614C304.159 28.3787 277.33 28.3897 250 28.4022Z" fill="black"/>
<path d="M285 37.7621C300.478 37.771 315.457 37.7701 330.435 37.8035C332.09 37.8072 333.81 37.7576 335.383 38.1739C337.701 38.7871 339.019 40.5774 338.994 42.9808C338.968 45.3448 337.223 46.5228 335.176 46.9755C333.575 47.3293 331.872 47.2989 330.215 47.3005C295.931 47.3342 261.647 47.3359 227.364 47.3841C223.859 47.389 220.713 46.7818 220.776 42.5109C220.839 38.1862 224.237 37.7851 227.582 37.7819C246.555 37.7635 265.527 37.7666 285 37.7621Z" fill="#3C3C3C"/>
<path d="M285.225 58C300.704 58.0089 315.682 58.0081 330.66 58.0415C332.315 58.0452 334.035 57.9955 335.608 58.4118C337.926 59.0251 339.245 60.8154 339.219 63.2187C339.194 65.5827 337.448 66.7608 335.401 67.2134C333.801 67.5672 332.098 67.5368 330.44 67.5385C296.156 67.5722 261.873 67.5738 227.589 67.6221C224.085 67.627 220.938 67.0198 221.001 62.7489C221.065 58.4242 224.463 58.023 227.807 58.0198C246.78 58.0015 265.753 58.0045 285.225 58Z" fill="#6C6B6B" fill-opacity="0.25"/>
<path d="M188.055 0.703904C196.789 0.704034 205.031 0.704033 213.841 0.704033C201.598 12.4453 190.135 23.4386 178.672 34.4319C178.366 34.6943 178.851 32.8987 178.843 31.3048C178.8 23.1436 179.068 14.9716 178.724 6.8246C178.517 1.9107 180.362 0.0863655 185.065 0.68853C185.884 0.793465 186.729 0.703652 188.055 0.703904Z" fill="black"/>
</svg>
